<?xml version="1.0" standalone="no"?>
<!DOCTYPE svg PUBLIC "-//W3C//DTD SVG 20010904//EN"
 "http://www.w3.org/TR/2001/REC-SVG-20010904/DTD/svg10.dtd">
<svg version="1.0" xmlns="http://www.w3.org/2000/svg"
 width="300.000000pt" height="292.000000pt" viewBox="0 0 300.000000 292.000000"
 preserveAspectRatio="xMidYMid meet">
<metadata>
Created by potrace 1.10, written by Peter Selinger 2001-2011
</metadata>
<g transform="translate(0.000000,292.000000) scale(0.100000,-0.100000)"
fill="#000000" stroke="none">
<path d="M1355 2803 c-309 -40 -605 -191 -826 -420 -403 -418 -495 -1016 -233
-1512 76 -143 132 -219 249 -336 109 -110 170 -155 317 -234 470 -252 1008
-209 1423 114 104 81 248 231 308 322 99 149 175 342 203 513 21 128 14 371
-15 485 -66 263 -179 471 -354 652 -166 172 -350 288 -574 363 -147 49 -357
71 -498 53z m305 -78 c295 -48 613 -237 775 -460 16 -22 38 -48 49 -58 12 -10
14 -16 6 -12 -10 4 -9 1 3 -8 9 -8 17 -19 17 -24 0 -6 7 -16 15 -23 9 -7 25
-35 37 -62 11 -26 25 -48 30 -48 5 0 7 -4 4 -9 -3 -5 1 -12 10 -15 10 -4 13
-13 9 -26 -4 -14 -2 -20 6 -18 17 4 72 -158 100 -288 61 -289 -6 -629 -176
-890 -103 -160 -324 -358 -492 -443 -199 -99 -353 -136 -573 -135 -134 0 -170
4 -268 27 -653 158 -1089 784 -987 1416 19 116 52 216 114 347 70 147 140 246
260 364 297 296 678 427 1061 365z"/>
<path d="M1397 2703 c18 -2 50 -2 70 0 21 2 7 4 -32 4 -38 0 -55 -2 -38 -4z"/>
<path d="M1355 2659 c-168 -24 -359 -103 -529 -219 -369 -251 -579 -715 -514
-1137 7 -43 12 -92 12 -110 1 -17 5 -29 9 -26 4 2 5 -6 3 -19 -3 -12 1 -36 9
-53 15 -31 15 -32 -2 35 -2 8 4 -1 13 -20 9 -19 17 -47 18 -62 0 -14 5 -23 10
-20 5 3 6 -2 3 -12 -5 -11 -3 -15 5 -10 8 5 9 2 5 -10 -5 -11 -3 -15 5 -10 8
5 9 2 5 -9 -3 -10 -2 -17 4 -17 6 0 7 -5 3 -12 -4 -6 0 -16 9 -23 9 -6 17 -18
19 -26 2 -7 10 -20 18 -27 13 -12 13 -13 0 -7 -8 4 -6 -2 6 -12 26 -23 77 -93
68 -93 -3 0 38 -44 92 -98 144 -143 250 -214 444 -297 400 -171 863 -75 1210
253 192 179 312 397 356 642 18 101 17 284 -1 399 -60 368 -322 715 -667 884
-220 108 -414 145 -613 116z m303 -75 c42 -9 112 -29 154 -45 62 -24 86 -40
126 -84 56 -61 75 -98 98 -186 25 -98 15 -193 -31 -288 -34 -69 -56 -94 -231
-266 -172 -168 -194 -194 -194 -222 0 -18 5 -43 11 -56 6 -14 83 -91 171 -173
186 -171 239 -238 269 -336 18 -58 21 -87 17 -164 -5 -83 -10 -104 -41 -168
-47 -93 -119 -168 -189 -194 -66 -25 -194 -50 -273 -54 -40 -3 -59 -8 -57 -16
1 -8 -14 -12 -50 -11 l-53 1 35 12 c34 12 33 13 -50 19 -87 7 -210 36 -261 62
-49 26 -118 108 -160 190 -34 68 -41 92 -46 165 -9 132 23 234 101 319 17 18
104 100 193 183 177 162 195 189 169 251 -7 19 -87 100 -192 197 -161 150
-183 174 -217 241 -65 127 -68 267 -8 395 43 91 89 137 174 172 71 30 164 57
222 65 76 10 242 6 313 -9z m361 -105 l54 -31 -24 -19 c-24 -18 -24 -18 -42 4
-10 12 -24 29 -31 37 -39 49 -30 51 43 9z m-1056 -24 c-28 -36 -56 -42 -60
-15 -2 8 12 22 30 32 51 26 60 21 30 -17z m1164 -89 c199 -151 357 -379 417
-606 46 -173 52 -381 15 -546 l-12 -54 -118 0 -117 0 -11 30 -10 30 84 0 c121
0 119 -4 123 243 3 186 2 197 -18 217 -19 19 -32 20 -295 20 -262 0 -276 -1
-295 -20 -19 -19 -20 -33 -20 -205 0 -193 7 -234 45 -249 9 -3 55 -6 101 -6
l85 0 -16 -30 c-15 -28 -19 -30 -73 -30 l-57 0 -158 155 c-125 121 -158 159
-155 177 2 13 60 75 149 158 172 159 228 223 264 297 69 146 69 288 0 446 -12
28 9 20 72 -27z m-1238 -11 c-37 -83 -51 -180 -39 -259 12 -79 54 -178 101
-237 17 -21 104 -107 194 -190 90 -82 166 -156 168 -164 12 -29 -10 -57 -135
-175 l-129 -123 3 92 3 91 -101 0 c-56 0 -115 3 -132 6 -28 6 -30 4 -25 -15 3
-11 9 -21 14 -21 5 0 9 -45 9 -100 0 -89 -2 -100 -18 -100 -12 0 -21 11 -27
32 -7 23 -17 34 -32 36 -19 3 -23 10 -23 38 0 30 -5 37 -32 49 -31 13 -161
155 -174 190 -7 18 160 195 185 195 13 0 16 -12 16 -52 0 -66 44 -168 72 -168
19 0 243 184 243 200 0 5 -12 23 -27 41 -29 35 -85 63 -145 74 -21 4 -38 13
-38 20 0 22 -51 55 -85 55 -45 0 -100 -60 -90 -98 5 -22 -5 -37 -82 -114 -50
-50 -96 -88 -107 -88 -28 0 -56 -29 -56 -57 0 -16 10 -30 34 -44 42 -25 176
-185 176 -210 0 -16 -8 -19 -44 -19 -47 0 -76 -24 -76 -63 0 -15 -7 -18 -42
-15 -41 3 -42 4 -56 53 -19 72 -27 284 -13 388 30 225 166 494 327 649 86 81
168 147 186 148 15 0 15 -4 -3 -45z m-121 -547 c18 -18 14 -31 -13 -51 -19
-14 -29 -15 -45 -7 -37 20 -19 70 25 70 12 0 26 -5 33 -12z m127 -68 c22 -10
50 -27 62 -37 l22 -18 -83 -72 c-46 -40 -89 -73 -96 -75 -14 -4 -49 76 -49
116 -1 20 10 40 38 67 44 44 51 46 106 19z m1554 -240 l-3 -150 -263 0 -263 0
0 150 0 150 266 0 265 0 -2 -150z m-1974 10 c0 -8 -8 -16 -17 -18 -13 -2 -18
3 -18 18 0 15 5 20 18 18 9 -2 17 -10 17 -18z m531 -182 c-3 -13 -6 -56 -6
-95 l0 -73 -70 0 -70 0 0 95 0 95 76 0 c74 0 76 -1 70 -22z m1454 -35 c-1 -35
-15 -37 -275 -36 -259 0 -274 2 -275 36 0 4 124 7 275 7 151 0 275 -3 275 -7z
m-1780 -21 c0 -26 -11 -34 -27 -21 -20 17 -16 39 7 39 13 0 20 -7 20 -18z
m1578 -87 l12 -25 -76 0 c-65 0 -75 2 -70 16 3 9 6 20 6 25 0 5 26 9 58 9 53
0 60 -2 70 -25z m-1534 9 c9 -3 16 -12 16 -20 0 -11 -22 -14 -105 -14 -103 0
-117 4 -93 28 13 13 153 17 182 6z m226 -79 c0 -3 -10 -19 -22 -35 l-22 -30
-232 0 c-212 0 -232 1 -237 18 -2 9 -8 25 -12 35 -7 16 9 17 259 17 146 0 266
-2 266 -5z m1580 -5 c0 -5 -5 -21 -12 -35 l-11 -25 -237 0 -237 0 -14 28 c-7
15 -15 30 -17 35 -2 4 116 7 262 7 162 0 266 -4 266 -10z m-2062 -93 c6 0 12
-4 12 -8 0 -5 6 -7 13 -5 6 3 34 7 60 10 l49 6 -7 -38 c-7 -33 -9 -103 -6
-185 1 -15 12 -39 25 -52 13 -13 23 -25 21 -27 -1 -2 25 -25 59 -53 l61 -50
-79 85 -78 85 6 65 c3 36 6 85 6 111 l0 45 143 0 143 -1 -23 -60 c-21 -53 -23
-72 -19 -160 4 -102 28 -187 57 -206 8 -5 11 -9 7 -9 -3 0 2 -10 12 -22 62
-73 90 -111 86 -115 -9 -9 -128 56 -201 109 -32 23 -172 145 -181 158 -7 8
-22 26 -34 40 -64 72 -93 113 -134 192 -51 97 -53 103 -28 93 9 -4 23 -8 30
-8z m1726 -15 c75 -2 123 1 129 7 13 13 54 15 61 3 3 -5 31 -5 63 -1 32 3 61
4 65 2 4 -2 -2 -24 -15 -49 -17 -36 -23 -41 -29 -27 -6 16 -7 16 -9 -2 -1 -11
-3 -24 -3 -30 -3 -19 -28 -75 -35 -75 -4 0 -15 -13 -24 -30 -10 -16 -22 -30
-26 -30 -5 0 -7 33 -4 73 2 39 -1 86 -6 102 -8 23 -10 4 -8 -83 1 -81 -1 -112
-10 -112 -6 0 -15 -5 -19 -12 -5 -7 -3 -8 7 -3 12 8 12 6 0 -8 -7 -9 -17 -14
-22 -11 -5 3 -12 -3 -16 -12 -7 -19 -39 -59 -61 -78 -8 -6 -28 -23 -45 -39
-88 -76 -207 -152 -228 -145 -11 4 48 88 62 88 5 0 9 4 9 10 0 5 11 25 24 44
28 42 47 131 47 225 0 80 -15 144 -44 185 -20 28 -20 29 -1 21 10 -5 73 -11
138 -13z"/>
<path d="M1462 2518 c-24 -24 -11 -88 18 -88 19 0 30 19 30 54 0 21 -17 46
-30 46 -3 0 -11 -5 -18 -12z"/>
<path d="M1201 2416 c-16 -19 19 -62 42 -53 20 7 22 38 5 55 -16 16 -33 15
-47 -2z"/>
<path d="M1716 2411 c-22 -24 -15 -51 12 -51 28 0 48 28 36 48 -16 24 -29 25
-48 3z"/>
<path d="M1460 2282 c0 -49 -3 -91 -6 -95 -3 -3 -35 26 -71 64 -59 62 -103 87
-103 58 0 -6 30 -42 67 -81 37 -38 72 -83 78 -100 5 -17 17 -36 26 -41 24 -15
64 0 78 29 10 22 9 31 -6 53 -12 18 -20 53 -23 111 -4 70 -8 85 -22 88 -16 3
-18 -6 -18 -86z"/>
<path d="M1034 2175 c-10 -25 9 -37 52 -33 31 2 39 7 39 23 0 16 -8 21 -43 23
-32 2 -44 -1 -48 -13z"/>
<path d="M1853 2183 c-19 -7 -16 -30 4 -42 15 -8 14 -10 -12 -16 -17 -4 -37
-9 -45 -11 -8 -2 -51 -24 -94 -49 -105 -60 -196 -95 -244 -95 -64 0 -191 36
-350 100 -82 33 -151 60 -155 60 -3 0 3 -27 13 -60 34 -113 67 -156 241 -316
90 -82 178 -171 196 -197 42 -63 50 -137 30 -293 -29 -221 -87 -342 -198 -414
-34 -22 -77 -42 -96 -46 -36 -7 -133 0 -170 11 -22 7 -22 5 -16 -46 21 -183
117 -298 307 -370 102 -38 95 -16 -12 39 -114 57 -157 92 -203 164 -44 68 -38
80 41 84 60 3 149 29 138 40 -3 2 -27 -3 -54 -11 -59 -18 -119 -19 -163 -4
-26 9 -32 16 -27 33 3 11 6 25 6 29 0 5 20 6 44 3 52 -7 123 6 186 36 46 21
150 121 150 145 0 7 5 13 10 13 6 0 10 8 10 19 0 10 7 24 15 31 8 7 15 23 15
36 0 12 4 25 10 29 5 3 7 12 3 20 -3 9 0 21 6 28 6 7 13 40 17 73 3 32 8 66
11 74 3 8 5 31 5 50 l-1 35 10 -40 c5 -22 10 -46 11 -52 1 -7 4 -13 8 -13 3 0
7 -15 8 -32 9 -115 77 -293 119 -309 37 -14 39 -11 10 18 -61 65 -110 240
-124 448 -9 144 -2 156 235 375 184 171 228 235 246 363 l7 47 -35 0 c-19 0
-38 5 -41 10 -6 10 -50 12 -72 3z m127 -63 c0 -6 -10 -14 -22 -19 -13 -5 -36
-23 -53 -41 -16 -17 -60 -54 -97 -82 -38 -27 -68 -53 -68 -57 0 -4 -26 -34
-57 -66 -36 -37 -47 -52 -29 -41 15 10 42 34 60 54 43 50 58 64 90 87 16 11
50 41 77 68 26 26 50 47 53 47 14 0 4 -36 -24 -84 -28 -48 -79 -101 -285 -296
-50 -47 -102 -104 -117 -127 -15 -24 -30 -43 -33 -43 -2 0 -16 18 -30 40 -30
47 -80 99 -225 230 -177 160 -192 177 -185 200 3 11 2 20 -3 20 -12 0 -46 50
-39 57 3 2 45 -11 94 -30 168 -66 201 -76 301 -87 119 -13 146 -6 338 86 188
90 254 112 254 84z"/>
<path d="M1050 1992 c0 -25 147 -95 220 -105 38 -5 41 -4 18 4 -16 6 -28 14
-28 19 0 5 -15 12 -32 16 -18 3 -65 22 -105 40 -40 18 -73 30 -73 26z"/>
<path d="M1546 1734 c-36 -30 -66 -60 -66 -66 0 -12 19 4 100 79 64 61 43 53
-34 -13z"/>
<path d="M1570 2142 c0 -11 97 -35 110 -27 5 3 10 13 10 21 0 11 -14 14 -60
14 -33 0 -60 -4 -60 -8z"/>
<path d="M1254 1135 c-8 -20 4 -35 26 -35 23 0 32 13 24 34 -8 20 -43 21 -50
1z"/>
<path d="M1670 1135 c-10 -12 -10 -18 0 -30 7 -8 18 -15 25 -15 7 0 18 7 25
15 10 12 10 18 0 30 -7 8 -18 15 -25 15 -7 0 -18 -7 -25 -15z"/>
<path d="M1028 1033 c-45 -51 -88 -193 -59 -193 7 0 9 5 5 13 -6 9 -5 9 8 -1
13 -10 17 -3 31 54 9 37 14 70 11 75 -3 5 0 9 7 9 7 0 9 3 6 6 -3 4 -2 15 4
26 14 26 6 32 -13 11z"/>
<path d="M1459 1048 c-1 -2 -3 -32 -4 -68 -2 -44 0 -58 6 -42 5 12 16 22 26
22 14 0 18 8 18 43 0 36 -3 42 -22 45 -13 2 -24 2 -24 0z m36 -28 c0 -8 -8
-16 -17 -18 -13 -2 -18 3 -18 18 0 15 5 20 18 18 9 -2 17 -10 17 -18z"/>
<path d="M1114 1025 c-4 -9 -2 -21 4 -27 15 -15 44 -1 40 19 -4 23 -36 29 -44
8z"/>
<path d="M1806 1021 c-3 -4 0 -16 7 -25 11 -14 15 -15 31 -3 11 8 16 19 12 25
-8 14 -42 16 -50 3z"/>
<path d="M1709 955 c-17 -34 -36 -53 -76 -75 -29 -17 -53 -35 -53 -40 0 -18
46 -11 65 10 32 35 29 13 -5 -40 -23 -37 -30 -57 -26 -75 4 -14 10 -25 15 -25
5 0 42 -22 82 -50 40 -27 76 -50 80 -50 7 0 159 233 159 243 0 2 -29 19 -65
36 -35 18 -83 50 -105 71 -23 22 -43 40 -45 40 -2 0 -14 -20 -26 -45z m148
-94 l42 -21 -39 -59 c-22 -33 -47 -75 -57 -95 -16 -35 -17 -36 -37 -18 -12 10
-39 30 -60 43 -22 13 -44 27 -49 30 -4 3 13 49 39 102 l48 96 35 -28 c20 -16
55 -38 78 -50z"/>
<path d="M1750 872 c0 -11 88 -57 96 -50 3 4 -17 18 -45 32 -28 15 -51 23 -51
18z"/>
<path d="M1730 843 c0 -5 19 -19 43 -33 55 -33 57 -33 57 -22 0 6 -20 22 -44
36 -47 28 -56 30 -56 19z"/>
<path d="M1710 813 c0 -11 90 -67 96 -60 6 6 -74 67 -88 67 -4 0 -8 -3 -8 -7z"/>
<path d="M1695 770 c8 -14 86 -53 92 -47 6 7 -68 57 -85 57 -7 0 -10 -5 -7
-10z"/>
<path d="M1317 827 c-37 -64 -137 -265 -137 -277 0 -11 219 -120 243 -120 19
0 37 30 118 189 50 100 59 125 48 132 -29 20 -195 102 -221 110 -24 7 -29 3
-51 -34z m219 -94 c16 -11 12 -23 -46 -135 -35 -68 -65 -125 -67 -127 -2 -3
-48 17 -103 44 l-99 48 26 51 c14 28 45 88 70 134 l45 82 78 -42 c44 -23 87
-48 96 -55z"/>
<path d="M1370 766 c0 -17 107 -79 120 -71 22 13 6 31 -48 58 -64 31 -72 33
-72 13z"/>
<path d="M1340 722 c0 -9 130 -75 137 -69 4 5 -120 77 -131 77 -3 0 -6 -4 -6
-8z"/>
<path d="M1326 692 c-2 -4 27 -24 66 -44 38 -21 68 -33 66 -28 -5 15 -126 81
-132 72z"/>
<path d="M1310 655 c0 -9 131 -77 137 -71 8 7 10 6 -59 44 -54 30 -78 38 -78
27z"/>
<path d="M1291 623 c1 -11 130 -75 137 -68 7 6 8 5 -60 43 -58 32 -79 39 -77
25z"/>
<path d="M1285 584 c29 -23 116 -66 122 -61 5 6 -39 38 -84 61 -41 20 -65 21
-38 0z"/>
<path d="M1952 800 l-22 -10 20 -20 c32 -32 23 -64 -20 -70 -32 -5 -33 -6 -12
-14 20 -6 23 -13 17 -34 -13 -52 -107 -155 -170 -187 -22 -11 -42 -23 -45 -27
-3 -4 -28 -17 -55 -29 -63 -27 -45 -35 29 -14 161 47 281 190 300 358 7 61 3
65 -42 47z"/>
<path d="M1595 555 c-32 -31 -32 -58 2 -84 30 -24 59 -20 85 13 23 28 22 38
-7 70 -30 32 -49 33 -80 1z m49 -11 c20 -8 21 -38 1 -54 -29 -24 -60 21 -33
48 14 14 12 14 32 6z"/>
<path d="M2221 2127 c-8 -11 -6 -18 9 -32 19 -17 22 -17 37 -3 9 9 13 24 10
32 -8 20 -40 21 -56 3z"/>
<path d="M2160 1997 c-23 -88 -32 -106 -75 -146 -25 -23 -45 -46 -45 -50 0
-12 71 -37 170 -61 47 -11 88 -20 91 -20 13 0 106 226 97 235 -3 3 -55 23
-116 45 l-111 39 -11 -42z m121 -38 c35 -12 66 -23 68 -25 7 -7 -64 -164 -74
-164 -15 0 -156 38 -161 43 -3 3 6 16 19 31 21 23 45 70 61 119 7 22 9 21 87
-4z"/>
<path d="M2220 1932 c0 -9 68 -33 91 -31 16 1 -60 38 -78 39 -7 0 -13 -4 -13
-8z"/>
<path d="M2200 1902 c0 -13 90 -43 103 -35 10 6 -11 15 -80 37 -13 4 -23 3
-23 -2z"/>
<path d="M2190 1866 c0 -8 88 -34 94 -28 4 3 -11 11 -31 19 -38 13 -63 16 -63
9z"/>
<path d="M2170 1835 c0 -6 33 -19 73 -29 42 -10 32 9 -12 22 -42 13 -61 15
-61 7z"/>
<path d="M2410 1814 c-11 -12 -11 -18 2 -30 16 -16 48 -9 48 10 0 13 -20 36
-31 36 -4 0 -12 -7 -19 -16z"/>
<path d="M1766 1515 c-21 -16 -16 -42 10 -52 8 -3 23 2 32 11 15 15 15 17 -3
35 -18 17 -22 18 -39 6z"/>
<path d="M681 2087 c-8 -11 -6 -18 9 -32 19 -17 22 -17 37 -2 13 13 14 19 3
31 -15 20 -34 20 -49 3z"/>
<path d="M1102 1518 c-18 -18 -15 -36 9 -48 16 -9 25 -8 40 6 18 16 18 18 3
36 -20 21 -35 23 -52 6z"/>
<path d="M812 1697 c-27 -29 -28 -41 -2 -25 11 7 20 18 20 25 0 6 6 14 13 16
6 3 7 6 1 6 -6 1 -20 -9 -32 -22z"/>
<path d="M855 1635 c-77 -72 -73 -90 6 -22 49 41 87 87 72 87 -5 -1 -39 -30
-78 -65z"/>
<path d="M2324 1501 c-7 -77 -6 -102 3 -105 20 -8 26 13 31 93 3 55 0 81 -10
95 -13 16 -15 7 -24 -83z"/>
<path d="M2025 1503 c8 -106 12 -120 27 -105 6 6 12 52 14 101 l3 91 -25 0
-25 0 6 -87z"/>
<path d="M2172 1550 c2 -28 8 -36 26 -38 19 -3 22 1 22 27 0 42 -2 45 -28 46
-20 1 -23 -3 -20 -35z"/>
<path d="M2090 1545 c0 -32 2 -35 30 -35 28 0 30 3 30 35 0 32 -2 35 -30 35
-28 0 -30 -3 -30 -35z"/>
<path d="M2249 1578 c-5 -21 -6 -58 -1 -58 4 0 17 -3 30 -6 20 -6 22 -3 22 30
0 32 -3 36 -25 36 -14 0 -25 -1 -26 -2z"/>
<path d="M2090 1444 c0 -33 2 -35 28 -32 22 2 28 8 30 36 3 30 1 32 -27 32
-29 0 -31 -3 -31 -36z"/>
<path d="M2167 1448 c-6 -39 4 -52 32 -43 16 5 21 15 21 41 0 29 -3 34 -24 34
-19 0 -25 -6 -29 -32z"/>
<path d="M2240 1445 c0 -34 2 -36 28 -33 23 3 27 8 27 33 0 25 -4 30 -27 33
-26 3 -28 1 -28 -33z"/>
<path d="M897 1300 c12 -5 34 -5 50 0 24 7 21 8 -22 9 -38 0 -45 -2 -28 -9z"/>
<path d="M1115 2646 c-22 -7 -53 -20 -70 -30 -16 -9 -21 -14 -10 -10 11 4 45
16 75 26 81 29 84 39 5 14z"/>
<path d="M935 2567 c-85 -46 -206 -131 -240 -169 l-30 -33 35 31 c39 35 194
144 204 144 4 0 30 13 59 30 70 40 47 38 -28 -3z"/>
<path d="M2672 1655 c0 -16 3 -52 8 -80 l7 -50 0 50 c1 28 -3 64 -7 80 l-8 30
0 -30z"/>
<path d="M245 1517 c-4 -53 -5 -101 -3 -109 3 -7 8 34 12 91 4 57 5 105 3 108
-3 2 -8 -38 -12 -90z"/>
<path d="M2687 1410 c-20 -335 -141 -590 -391 -828 -153 -144 -342 -251 -536
-302 -131 -34 -332 -39 -478 -11 -116 22 -232 61 -321 106 -28 14 -56 25 -63
25 -19 -1 75 -49 170 -86 136 -54 265 -77 432 -78 105 0 167 5 225 18 44 10
87 19 95 21 81 18 252 102 348 171 206 147 374 353 448 549 62 167 101 393 84
492 -4 28 -8 7 -13 -77z"/>
<path d="M2435 474 c-44 -41 -92 -82 -107 -90 -16 -8 -28 -19 -28 -25 0 -6 14
-1 30 11 34 25 198 179 190 180 -3 0 -41 -34 -85 -76z"/>
<path d="M729 333 c53 -50 268 -163 366 -192 90 -26 97 -20 8 9 -57 18 -132
53 -294 137 -15 7 -32 20 -39 28 -7 8 -17 15 -23 15 -6 0 -23 10 -37 23 -14
12 -6 3 19 -20z"/>
<path d="M2270 343 c0 -8 -60 -47 -70 -46 -3 0 -14 -8 -25 -20 -19 -18 -17
-18 21 3 53 28 103 69 87 70 -7 0 -13 -3 -13 -7z"/>
</g>
</svg>
